<svg xmlns="http://www.w3.org/2000/svg" xmlns:xlink="http://www.w3.org/1999/xlink" width="20" height="23" viewBox="0 0 20 23"><defs><path id="a" d="M1270.04 29.02a4.01 4.01 0 1 0 0-8.02 4.03 4.03 0 0 0-4.04 4.01 4.02 4.02 0 0 0 4.04 4.01zm0 2a6.02 6.02 0 1 1 0-12.02 6.02 6.02 0 1 1 0 12.02zM1260 41v-3.14c0-4.03 4.48-4.86 10-4.86s10 .83 10 4.86v2.97h-2.02v-2.97c0-1.92-2.31-2.83-7.98-2.83s-7.98.91-7.98 2.83v3.12z"/></defs><use fill="#FAB72E" xlink:href="#a" transform="translate(-1260 -19)"/></svg>