<?xml version="1.0" encoding="utf-8"?>
<!-- Generator: Adobe Illustrator 16.0.0, SVG Export Plug-In . SVG Version: 6.00 Build 0)  -->
<!DOCTYPE svg PUBLIC "-//W3C//DTD SVG 1.1//EN" "http://www.w3.org/Graphics/SVG/1.1/DTD/svg11.dtd">
<svg version="1.1" id="the-grid" xmlns="http://www.w3.org/2000/svg" xmlns:xlink="http://www.w3.org/1999/xlink" x="0px" y="0px" width="50px" height="50px" viewBox="0 0 50 50" enable-background="new 0 0 50 50" xml:space="preserve">
<path d="M44.268,19.3l-1.212-1.407c-4.396-4.381-11.763-4.381-16.152,0l-9.298,9.298l0.704,0.703
	c2.806,2.807,6.844,3.862,10.53,2.982l-5.095,5.093l-8.594-8.604l10.53-10.52c2.102-2.111,3.333-5.094,3.333-8.076
	c0-2.981-1.231-5.964-3.333-8.066L24.978,0l-19.3,19.3c-4.386,4.38-4.386,11.753,0,16.143l11.233,11.233
	C19.189,48.945,21.995,50,24.978,50c2.981,0,5.788-1.055,8.066-3.324l11.224-11.233c2.112-2.112,3.345-5.095,3.345-8.077
	C47.612,24.208,46.38,21.402,44.268,19.3z M45.852,27.19c0,2.287-0.88,4.39-2.27,6.14l-7.38-7.362l6.148-6.14l0.705,0.694
	C44.795,22.282,45.852,24.736,45.852,27.19z M41.12,18.596l-6.141,6.14l-6.14-6.14C32.35,15.615,37.434,15.615,41.12,18.596z
	 M20.069,27.19l7.361-7.362l6.141,6.14l-0.527,0.695C29.543,30.173,23.745,30.348,20.069,27.19z M34.274,27.894L34.274,27.894
	l0.705-0.703l7.371,7.372L32.35,44.563l-7.372-7.371L34.274,27.894z M13.753,25.968l-6.146-6.14l9.999-10.002l6.14,6.14
	L13.753,25.968z M27.255,8.594c0,2.281-0.87,4.39-2.277,6.141l-6.141-6.141l6.141-6.14C26.385,4.214,27.255,6.316,27.255,8.594z
	 M6.381,21.05l6.14,6.14l-6.14,6.14C3.399,29.82,3.399,24.736,6.381,21.05z M13.753,28.599l8.594,8.594l-6.14,6.14l-8.601-8.594
	L13.753,28.599z M18.133,45.268l-0.704-0.704l6.14-6.14l7.372,7.373C27.255,48.945,21.644,48.769,18.133,45.268z"/>
</svg>
