<?xml version="1.0" encoding="utf-8"?>
<!-- Generated by IcoMoon.io -->
<!DOCTYPE svg PUBLIC "-//W3C//DTD SVG 1.1//EN" "http://www.w3.org/Graphics/SVG/1.1/DTD/svg11.dtd">
<svg version="1.1" xmlns="http://www.w3.org/2000/svg" xmlns:xlink="http://www.w3.org/1999/xlink" width="464" height="32" viewBox="0 0 464 32">
<svg id="icon-spinner11" width="32" height="32" viewBox="0 0 32 32" x="0" y="0">
<path fill="#ffffff" d="M28.36 12.91h-9.27l3.465-3.465c-1.751-1.751-4.079-2.715-6.555-2.715s-4.804 0.964-6.555 2.715c-1.751 1.751-2.715 4.079-2.715 6.555s0.964 4.804 2.715 6.555c1.751 1.751 4.079 2.715 6.555 2.715s4.804-0.964 6.555-2.715c0.146-0.146 0.286-0.297 0.421-0.451l2.325 2.035c-2.265 2.587-5.592 4.221-9.301 4.221-6.826 0-12.36-5.534-12.36-12.36s5.534-12.36 12.36-12.36c3.413 0 6.503 1.384 8.739 3.621l3.621-3.621v9.27z"></path>
</svg>
<svg id="icon-enlarge" width="32" height="32" viewBox="0 0 32 32" x="48" y="0">
<path fill="#ffffff" d="M28.36 3.64h-10.042l3.862 3.862-4.635 4.635 2.317 2.317 4.635-4.635 3.862 3.862z"></path>
<path fill="#ffffff" d="M28.36 28.36v-10.042l-3.862 3.862-4.635-4.635-2.317 2.317 4.635 4.635-3.862 3.862z"></path>
<path fill="#ffffff" d="M3.64 28.36h10.042l-3.862-3.862 4.635-4.635-2.317-2.317-4.635 4.635-3.862-3.862z"></path>
<path fill="#ffffff" d="M3.64 3.64v10.042l3.862-3.862 4.635 4.635 2.317-2.317-4.635-4.635 3.862-3.862z"></path>
</svg>
<svg id="icon-shrink2" width="32" height="32" viewBox="0 0 32 32" x="96" y="0">
<path fill="#ffffff" d="M14.242 17.758v11.426l-4.395-4.395-5.273 5.273-2.637-2.637 5.273-5.273-4.395-4.395zM30.063 4.574l-5.273 5.273 4.395 4.395h-11.426v-11.426l4.395 4.395 5.273-5.273z"></path>
</svg>
<svg id="icon-cog" width="32" height="32" viewBox="0 0 32 32" x="144" y="0">
<path fill="#ffffff" d="M26.861 18.53c-1.383-2.396-0.551-5.467 1.858-6.862l-2.591-4.488c-0.74 0.434-1.601 0.683-2.519 0.683-2.769 0-5.014-2.259-5.014-5.047h-5.182c0.007 0.86-0.208 1.732-0.668 2.53-1.383 2.396-4.459 3.211-6.872 1.822l-2.591 4.488c0.746 0.424 1.392 1.045 1.851 1.841 1.381 2.392 0.554 5.457-1.846 6.855l2.591 4.488c0.738-0.43 1.594-0.676 2.508-0.676 2.76 0 4.999 2.245 5.013 5.020h5.182c-0.002-0.852 0.213-1.714 0.669-2.503 1.381-2.392 4.449-3.208 6.86-1.829l2.591-4.488c-0.741-0.424-1.383-1.043-1.839-1.834zM16 21.339c-2.948 0-5.339-2.39-5.339-5.339s2.39-5.339 5.339-5.339 5.339 2.39 5.339 5.339c-0 2.949-2.39 5.339-5.339 5.339z"></path>
</svg>
<svg id="icon-play3" width="32" height="32" viewBox="0 0 32 32" x="192" y="0">
<path fill="#ffffff" d="M6 4l20 12-20 12z"></path>
</svg>
<svg id="icon-pause2" width="32" height="32" viewBox="0 0 32 32" x="240" y="0">
<path fill="#ffffff" d="M4 4h10v24h-10zM18 4h10v24h-10z"></path>
</svg>
<svg id="icon-stop2" width="32" height="32" viewBox="0 0 32 32" x="288" y="0">
<path fill="#ffffff" d="M4 4h24v24h-24z"></path>
</svg>
<svg id="icon-volume-medium" width="32" height="32" viewBox="0 0 32 32" x="336" y="0">
<path fill="#ffffff" d="M22.485 25.985c-0.384 0-0.768-0.146-1.061-0.439-0.586-0.586-0.586-1.535 0-2.121 4.094-4.094 4.094-10.755 0-14.849-0.586-0.586-0.586-1.536 0-2.121s1.536-0.586 2.121 0c2.55 2.55 3.954 5.94 3.954 9.546s-1.404 6.996-3.954 9.546c-0.293 0.293-0.677 0.439-1.061 0.439v0zM17.157 23.157c-0.384 0-0.768-0.146-1.061-0.439-0.586-0.586-0.586-1.535 0-2.121 2.534-2.534 2.534-6.658 0-9.192-0.586-0.586-0.586-1.536 0-2.121s1.535-0.586 2.121 0c3.704 3.704 3.704 9.731 0 13.435-0.293 0.293-0.677 0.439-1.061 0.439z"></path>
<path fill="#ffffff" d="M13 30c-0.26 0-0.516-0.102-0.707-0.293l-7.707-7.707h-3.586c-0.552 0-1-0.448-1-1v-10c0-0.552 0.448-1 1-1h3.586l7.707-7.707c0.286-0.286 0.716-0.372 1.090-0.217s0.617 0.519 0.617 0.924v26c0 0.404-0.244 0.769-0.617 0.924-0.124 0.051-0.254 0.076-0.383 0.076z"></path>
</svg>
<svg id="icon-volume-mute2" width="32" height="32" viewBox="0 0 32 32" x="384" y="0">
<path fill="#ffffff" d="M30 19.348v2.652h-2.652l-3.348-3.348-3.348 3.348h-2.652v-2.652l3.348-3.348-3.348-3.348v-2.652h2.652l3.348 3.348 3.348-3.348h2.652v2.652l-3.348 3.348 3.348 3.348z"></path>
<path fill="#ffffff" d="M13 30c-0.26 0-0.516-0.102-0.707-0.293l-7.707-7.707h-3.586c-0.552 0-1-0.448-1-1v-10c0-0.552 0.448-1 1-1h3.586l7.707-7.707c0.286-0.286 0.716-0.372 1.090-0.217s0.617 0.519 0.617 0.924v26c0 0.404-0.244 0.769-0.617 0.924-0.124 0.051-0.254 0.076-0.383 0.076z"></path>
</svg>
</svg>
